<?xml version="1.0" encoding="UTF-8" standalone="no"?><!DOCTYPE svg PUBLIC "-//W3C//DTD SVG 1.1//EN" "http://www.w3.org/Graphics/SVG/1.1/DTD/svg11.dtd"><svg width="100%" height="100%" viewBox="0 0 1889 1712" version="1.1" xmlns="http://www.w3.org/2000/svg" xmlns:xlink="http://www.w3.org/1999/xlink" xml:space="preserve" xmlns:serif="http://www.serif.com/" style="fill-rule:evenodd;clip-rule:evenodd;stroke-linecap:round;stroke-linejoin:round;stroke-miterlimit:1.5;"><circle cx="944.083" cy="855.781" r="855.781" style="fill:#fff;stroke:#fff;stroke-width:5.56px;"/><path d="M1299.67,1123.64c-4.005,8.756 -13.087,23.375 -25.348,23.826c-21.853,0.796 -24.191,-10.404 -40.342,-34.31c-35.461,-52.473 -344.928,-375.908 -402.813,-438.454c-50.911,-55.022 -7.17,-93.807 13.122,-114.133c25.458,-25.504 99.769,-99.77 99.769,-99.77c0,-0 221.578,210.233 313.878,353.88c92.3,143.641 60.489,267.943 41.734,308.961m-355.592,301.276c-102.608,0 -185.781,-83.178 -185.786,-185.781l-0,-0.005c-0,-47.036 18.704,-88.955 46.31,-122.709c33.499,-40.969 139.451,-156.183 139.451,-156.183c0,-0 104.331,116.907 139.201,155.787c30.38,33.769 47.006,77.686 46.611,123.105c-0,102.608 -83.183,185.786 -185.787,185.786m-310.588,-277.69c-33.123,-1.132 -155.367,-211.826 71.413,-436.167l150.065,163.923c5.036,4.981 5.086,13.102 0.11,18.144c-0.356,0.35 -0.726,0.685 -1.112,0.996c-35.811,36.728 -188.44,189.781 -207.409,242.71c-3.915,10.919 -9.638,10.509 -13.067,10.394m532.872,-696.54c-99.324,-99.284 -194.097,-193.922 -222.299,-300.666c-28.206,106.744 -122.989,201.382 -222.303,300.666c-148.969,148.873 -317.868,317.602 -317.868,570.661c-0,298.338 241.849,540.192 540.186,540.192c298.333,-0 540.187,-241.854 540.187,-540.192c0,-253.044 -168.884,-421.788 -317.903,-570.661" style="fill:#009cde;fill-rule:nonzero;"/></svg>