<?xml version="1.0" encoding="UTF-8" standalone="no"?><!DOCTYPE svg PUBLIC "-//W3C//DTD SVG 1.1//EN" "http://www.w3.org/Graphics/SVG/1.1/DTD/svg11.dtd"><svg width="100%" height="100%" viewBox="0 0 3117 3117" version="1.1" xmlns="http://www.w3.org/2000/svg" xmlns:xlink="http://www.w3.org/1999/xlink" xml:space="preserve" xmlns:serif="http://www.serif.com/" style="fill-rule:evenodd;clip-rule:evenodd;stroke-linejoin:round;stroke-miterlimit:2;"><g id="Final_Logo"><path d="M638.177,2146.55c0,0 -355.526,-393.916 -346.346,-669.324c5.842,-176.094 136.869,-305.452 295.438,-292.099c113.501,10.015 204.469,92.637 228.671,197.793c8.346,38.39 13.354,83.457 7.512,134.366c-17.526,152.726 -126.855,469.862 -185.275,629.264Z" style="fill:#b1dbe2;fill-rule:nonzero;"/><path d="M563.901,2149.06c-0,0 -346.346,5.008 -484.05,-112.667c-90.134,-76.78 -102.652,-194.454 -26.707,-262.054c57.586,-50.909 146.05,-57.585 211.146,-15.857c17.526,10.849 35.052,25.872 50.075,45.901c60.923,80.119 175.259,259.551 249.536,344.677Z" style="fill:#b1dbe2;fill-rule:nonzero;"/><path d="M690.755,2144.89c0,0 161.072,-267.896 327.151,-314.632c108.494,-30.879 214.484,18.36 235.348,111.832c15.857,69.269 -20.864,141.042 -87.629,170.252c-17.526,7.511 -38.39,13.353 -62.593,15.022c-97.644,5.842 -304.618,2.504 -412.277,17.526Z" style="fill:#b1dbe2;fill-rule:nonzero;"/><path d="M820.113,1844.44c0,-0 27.541,-317.137 159.403,-430.638c85.96,-74.277 205.304,-74.277 266.227,2.504c45.902,57.585 44.233,139.373 -4.172,194.454c-12.519,15.023 -29.21,29.21 -50.909,40.894c-85.961,47.571 -277.912,133.531 -370.549,192.786Z" style="fill:#b1dbe2;fill-rule:nonzero;"/></g><g id="Image_Text"><g><path d="M1697.25,1906.2l-188.612,-0l-0,121.847l210.311,-0l-0,95.141l-327.986,-0l0,-514.095l317.137,0l-0,95.141l-200.297,0l-0,106.825l188.613,-0l-0,95.141l0.834,-0Z" style="fill:#8a6b68;fill-rule:nonzero;"/><path d="M1798.23,1616.6c42.563,-6.676 98.479,-10.849 156.899,-10.849c97.644,-0 161.072,17.526 210.311,55.081c53.413,39.225 86.795,102.652 86.795,193.62c0,98.48 -35.886,166.08 -85.126,207.808c-54.247,45.067 -136.034,65.931 -237.017,65.931c-60.089,-0 -102.652,-4.173 -131.862,-7.511l-0,-504.08Zm116.84,418.954c10.014,2.504 25.871,2.504 40.059,2.504c105.156,0.834 173.59,-56.751 173.59,-179.433c0.835,-106.825 -61.758,-162.741 -161.906,-162.741c-25.872,0 -42.563,2.504 -52.578,4.173l0,335.497l0.835,-0Z" style="fill:#8a6b68;fill-rule:nonzero;"/><path d="M2328.18,1609.09l314.633,0l-0,95.141l-197.793,0l-0,117.674l184.44,0l-0,94.306l-184.44,0l-0,206.139l-116.84,-0l0,-513.26Z" style="fill:#8a6b68;fill-rule:nonzero;"/><path d="M3107.67,2108.16c-21.698,10.85 -69.269,21.699 -131.861,21.699c-177.764,0 -268.732,-110.163 -268.732,-257.047c0,-175.26 125.186,-272.904 280.416,-272.904c60.089,-0 105.99,12.518 126.854,22.533l-23.368,91.803c-23.368,-10.015 -56.751,-19.195 -97.644,-19.195c-91.803,-0 -163.576,55.916 -163.576,170.252c0,102.652 60.924,167.748 164.41,167.748c35.052,0 74.277,-7.511 96.81,-16.691l16.691,91.802Z" style="fill:#8a6b68;fill-rule:nonzero;"/></g></g></svg>