<?xml version="1.0" encoding="UTF-8" standalone="no"?>
<!DOCTYPE svg PUBLIC "-//W3C//DTD SVG 1.1//EN" "http://www.w3.org/Graphics/SVG/1.1/DTD/svg11.dtd">
<svg width="100%" height="100%" viewBox="0 0 3117 3117" version="1.1" xmlns="http://www.w3.org/2000/svg" xmlns:xlink="http://www.w3.org/1999/xlink" xml:space="preserve" xmlns:serif="http://www.serif.com/" style="fill-rule:evenodd;clip-rule:evenodd;stroke-linejoin:round;stroke-miterlimit:2;">
    <g transform="matrix(5.55556,0,0,5.55556,0,0)">
        <g transform="matrix(3.96747,0,0,3.96747,-15.8699,239.716)">
            <g>
                <path d="M36.6,8.7C36.2,7.2 35.6,5.6 33.5,5.6C31.7,5.6 30.9,6.9 30.9,8.2C30.9,9.9 32,10.7 33.9,11.7C35.7,12.6 38,13.7 38,16.4C38,18.9 35.9,20.8 32.8,20.8C31.8,20.8 31.1,20.6 30.5,20.4C29.9,20.2 29.6,20 29.4,19.9C29.2,19.4 28.9,17.4 28.8,16.3L29.5,16.1C29.9,17.5 30.9,19.9 33.3,19.9C35.1,19.9 36.1,18.8 36.1,17.1C36.1,15.4 34.8,14.5 33.1,13.6C31.6,12.8 29.2,11.6 29.2,9C29.2,6.8 31,4.8 34,4.8C35.1,4.8 36.1,5.1 37,5.3C37.1,6.1 37.2,7.1 37.4,8.5L36.6,8.7Z" style="fill:rgb(17,24,33);fill-rule:nonzero;"/>
                <path d="M52.4,20.4L52.4,19.8C53.8,19.7 54,19.6 54,17.9L54,14C54,12.3 53.4,11.3 51.9,11.3C51.1,11.3 50.2,11.8 49.3,12.5C49.3,12.8 49.4,13 49.4,13.5L49.4,18C49.4,19.5 49.6,19.6 50.9,19.8L50.9,20.4L45.9,20.4L45.9,19.8C47.4,19.7 47.6,19.5 47.6,18L47.6,14C47.6,12.3 47,11.3 45.6,11.3C44.7,11.3 43.7,11.9 43,12.5L43,18C43,19.5 43.2,19.7 44.3,19.8L44.3,20.4L39.4,20.4L39.4,19.8C40.9,19.7 41.2,19.5 41.2,18L41.2,13.1C41.2,11.6 41.1,11.5 39.8,11.3L39.8,10.8C40.8,10.6 42,10.3 43.1,9.8L43.1,11.7C43.6,11.4 44.1,11 44.8,10.5C45.4,10.1 46,9.9 46.7,9.9C47.8,9.9 48.8,10.6 49.3,11.8C50,11.3 50.7,10.8 51.2,10.5C51.7,10.2 52.3,9.9 53,9.9C54.8,9.9 56,11.2 56,13.5L56,18C56,19.6 56.2,19.7 57.5,19.8L57.5,20.4L52.4,20.4Z" style="fill:rgb(17,24,33);fill-rule:nonzero;"/>
                <path d="M58.6,20.4L58.6,19.8C60.1,19.7 60.2,19.5 60.2,17.9L60.2,13.1C60.2,11.6 60.1,11.6 58.7,11.3L58.7,10.7C59.9,10.5 61,10.2 62,9.8L62,17.9C62,19.5 62.2,19.6 63.7,19.8L63.7,20.4L58.6,20.4ZM59.9,6.7C59.9,6 60.5,5.5 61.1,5.5C61.8,5.5 62.3,6 62.3,6.7C62.3,7.3 61.8,7.9 61.1,7.9C60.5,7.9 59.9,7.3 59.9,6.7Z" style="fill:rgb(17,24,33);fill-rule:nonzero;"/>
                <path d="M69.3,20.4C68.9,20.6 68.5,20.7 68.3,20.7C66.8,20.7 66,19.8 66,17.9L66,11.1L64.4,11.1L64.3,10.9L64.9,10.2L66,10.2L66,8.5L67.5,7L67.8,7L67.8,10.2L70.4,10.2C70.6,10.4 70.5,10.9 70.3,11.1L67.8,11.1L67.8,17.1C67.8,19 68.6,19.3 69.2,19.3C69.8,19.3 70.3,19.1 70.7,18.9L70.9,19.5L69.3,20.4Z" style="fill:rgb(17,24,33);fill-rule:nonzero;"/>
                <path d="M78.3,20.4L78.3,19.8C79.7,19.7 79.8,19.5 79.8,18L79.8,14.1C79.8,12.2 79.1,11.2 77.5,11.2C76.6,11.2 75.7,11.6 75.1,12.4L75.1,18C75.1,19.5 75.2,19.7 76.6,19.8L76.6,20.4L71.6,20.4L71.6,19.8C73,19.7 73.2,19.5 73.2,18L73.2,6.8C73.2,5.3 73.2,5.2 71.6,5.1L71.6,4.5C72.7,4.3 74.1,4 75,3.7L75,11.6C75.8,10.8 77.1,9.9 78.4,9.9C80.3,9.9 81.6,11.1 81.6,13.9L81.6,18C81.6,19.5 81.8,19.7 83.1,19.8L83.1,20.4L78.3,20.4Z" style="fill:rgb(17,24,33);fill-rule:nonzero;"/>
                <path d="M90.4,12.9C90,11.5 89.1,10.6 88,10.6C87.1,10.6 86.5,11.3 86.5,12.2C86.5,13.3 87.4,13.8 88.5,14.2C90.3,14.9 91.5,15.8 91.5,17.4C91.5,19.5 89.5,20.6 87.6,20.6C86.4,20.6 85.3,20.2 84.9,19.8C84.7,19.5 84.5,17.9 84.5,17L85.1,16.9C85.5,18.4 86.6,19.8 88,19.8C88.9,19.8 89.7,19.1 89.7,18.2C89.7,17.2 89,16.6 87.8,16.1C86.4,15.4 84.9,14.7 84.9,12.9C84.9,11.3 86.3,9.9 88.5,9.9C89.5,9.9 90.1,10.1 90.6,10.3C90.8,10.8 91,12.2 91.1,12.8L90.4,12.9Z" style="fill:rgb(17,24,33);fill-rule:nonzero;"/>
                <path d="M103.4,15.1C103.4,18.9 100.6,20.7 98.3,20.7C95.1,20.7 93.2,18.1 93.2,15.5C93.2,11.6 96.2,9.9 98.3,9.9C101.2,9.9 103.4,12.2 103.4,15.1ZM95.3,14.8C95.3,17.8 96.6,20 98.5,20C100,20 101.1,18.9 101.1,15.7C101.1,13 100,10.7 98,10.7C96.6,10.7 95.3,12.1 95.3,14.8Z" style="fill:rgb(17,24,33);fill-rule:nonzero;"/>
                <path d="M111.3,20.4L111.3,19.8C112.7,19.7 112.8,19.5 112.8,17.9L112.8,14C112.8,12.4 112.2,11.3 110.7,11.3C109.8,11.3 108.8,11.9 108.1,12.5L108.1,18C108.1,19.6 108.2,19.7 109.6,19.8L109.6,20.4L104.5,20.4L104.5,19.8C106.1,19.6 106.2,19.5 106.2,18L106.2,13.1C106.2,11.6 106.1,11.5 104.8,11.3L104.8,10.8C105.9,10.6 107,10.3 108.1,9.8L108.1,11.7C108.6,11.3 109.1,11 109.7,10.6C110.4,10.2 111,9.9 111.6,9.9C113.5,9.9 114.6,11.2 114.6,13.5L114.6,18C114.6,19.6 114.7,19.7 116.1,19.8L116.1,20.4L111.3,20.4Z" style="fill:rgb(17,24,33);fill-rule:nonzero;"/>
                <path d="M117.5,20.4L117.5,19.8C119,19.7 119.1,19.5 119.1,17.9L119.1,13.1C119.1,11.6 119,11.6 117.6,11.3L117.6,10.7C118.8,10.5 119.9,10.2 120.9,9.8L120.9,17.9C120.9,19.5 121.1,19.6 122.6,19.8L122.6,20.4L117.5,20.4ZM118.8,6.7C118.8,6 119.4,5.5 120,5.5C120.7,5.5 121.2,6 121.2,6.7C121.2,7.3 120.7,7.9 120,7.9C119.3,7.9 118.8,7.3 118.8,6.7Z" style="fill:rgb(17,24,33);fill-rule:nonzero;"/>
                <path d="M131.3,20.7C130.9,20.7 130.5,20.5 130.2,20.3C129.9,20 129.8,19.6 129.6,19.2C128.7,19.8 127.5,20.7 126.8,20.7C125.1,20.7 124,19.3 124,17.8C124,16.7 124.6,15.9 125.9,15.5C127.3,15 129,14.4 129.5,14L129.5,13.6C129.5,11.9 128.7,11 127.5,11C127,11 126.7,11.2 126.4,11.5C126.1,11.8 125.9,12.3 125.7,13C125.6,13.4 125.3,13.5 125,13.5C124.6,13.5 124,13 124,12.5C124,12.1 124.3,11.9 124.7,11.6C125.4,11.1 126.9,10.2 128.2,10C128.9,10 129.6,10.2 130.1,10.6C130.9,11.3 131.2,12.2 131.2,13.5L131.2,17.9C131.2,19 131.6,19.3 132,19.3C132.3,19.3 132.6,19.2 132.8,19L133,19.6L131.3,20.7ZM129.6,14.8C129.1,15.1 128,15.5 127.5,15.8C126.6,16.2 126.1,16.7 126.1,17.5C126.1,18.7 127,19.3 127.8,19.3C128.4,19.3 129.2,18.9 129.7,18.5L129.7,14.8L129.6,14.8Z" style="fill:rgb(17,24,33);fill-rule:nonzero;"/>
                <path d="M140.6,20.4L140.6,19.8C142,19.7 142.1,19.5 142.1,17.9L142.1,14C142.1,12.4 141.5,11.3 140,11.3C139.1,11.3 138.1,11.9 137.4,12.5L137.4,18C137.4,19.6 137.5,19.7 138.9,19.8L138.9,20.4L133.8,20.4L133.8,19.8C135.4,19.6 135.5,19.5 135.5,18L135.5,13.1C135.5,11.6 135.4,11.5 134.1,11.3L134.1,10.8C135.2,10.6 136.3,10.3 137.4,9.8L137.4,11.7C137.9,11.3 138.4,11 139,10.6C139.7,10.2 140.3,9.9 140.9,9.9C142.8,9.9 143.9,11.2 143.9,13.5L143.9,18C143.9,19.6 144,19.7 145.4,19.8L145.4,20.4L140.6,20.4Z" style="fill:rgb(17,24,33);fill-rule:nonzero;"/>
            </g>
            <g>
                <circle cx="13.3" cy="12.8" r="9.3" style="fill:rgb(17,24,33);"/>
                <path d="M18.9,14.7C18.3,13.7 17.3,13.7 17.2,13.7L21.2,12.9L17.2,12.1C17.2,12.1 18,11.4 19.2,11.4C20.1,11.4 20.8,10.3 20.4,9.5C20.4,9.5 20.3,10.8 18.6,10.4C17.4,10.1 16.8,10.8 16.7,10.8L19,7.4L15.6,9.7C15.6,9.6 15.7,8.6 16.5,7.8C17.1,7.2 16.9,5.9 16,5.6C16,5.6 16.8,6.6 15.3,7.5C14.3,8.1 14.3,9.1 14.3,9.2L13.5,5.2L12.7,9.2C12.7,9.2 12,8.4 12,7.2C12,6.3 10.9,5.5 10.1,6C10.1,6 11.4,6.1 11,7.8C10.7,9 11.4,9.6 11.4,9.7L7.7,7.2L9.5,10L9.9,10.6C9.9,10.6 8.8,10.5 8,9.7C7.4,9.1 6.1,9.3 5.8,10.2C5.8,10.2 6.8,9.4 7.7,10.9C8.3,11.9 9.3,11.9 9.4,11.9L5.4,12.7L9.4,13.5C9.4,13.5 8.6,14.2 7.4,14.2C6.5,14.2 5.7,15.3 6.2,16.1C6.2,16.1 6.3,14.8 8,15.2C9.2,15.5 9.8,14.8 9.9,14.8L7.6,18.2L11,15.9C11,15.9 10.9,17 10.1,17.8C9.5,18.4 9.7,19.7 10.6,20C10.6,20 9.8,19 11.3,18.1C12.3,17.5 12.3,16.5 12.3,16.4L13.1,20.4L13.9,16.4C13.9,16.4 14.6,17.2 14.6,18.4C14.6,19.3 15.7,20 16.5,19.6C16.5,19.6 15.2,19.5 15.6,17.8C15.9,16.6 15.2,16 15.2,15.9L18.6,18.2L17.4,16.4L16.7,15C16.7,15 17.8,15.1 18.6,15.9C19.2,16.5 20.5,16.3 20.8,15.4C20.8,15.4 19.8,16.2 18.9,14.7Z" style="fill:white;fill-rule:nonzero;"/>
            </g>
        </g>
    </g>
</svg>
