<?xml version="1.0" encoding="UTF-8" standalone="no"?>
<!DOCTYPE svg PUBLIC "-//W3C//DTD SVG 1.1//EN" "http://www.w3.org/Graphics/SVG/1.1/DTD/svg11.dtd">
<svg width="100%" height="100%" viewBox="0 0 561 560" version="1.1" xmlns="http://www.w3.org/2000/svg" xmlns:xlink="http://www.w3.org/1999/xlink" xml:space="preserve" xmlns:serif="http://www.serif.com/" style="fill-rule:evenodd;clip-rule:evenodd;stroke-linejoin:round;stroke-miterlimit:2;">
    <g transform="matrix(1,0,0,1,0,250)">
        <path d="M15.664,47.768C12.934,47.768 10.203,47.277 7.472,46.296C4.784,45.272 2.374,43.757 0.24,41.752L5.616,35.288C7.11,36.568 8.752,37.613 10.544,38.424C12.379,39.235 14.171,39.64 15.92,39.64C17.883,39.64 19.334,39.277 20.272,38.552C21.254,37.827 21.744,36.845 21.744,35.608C21.744,34.968 21.595,34.413 21.296,33.944C21.04,33.475 20.635,33.069 20.08,32.728C19.568,32.344 18.928,32.003 18.16,31.704C17.435,31.363 16.624,31 15.728,30.616L10.288,28.312C9.222,27.885 8.176,27.331 7.152,26.648C6.171,25.965 5.275,25.176 4.464,24.28C3.696,23.341 3.078,22.275 2.608,21.08C2.139,19.843 1.904,18.456 1.904,16.92C1.904,15.213 2.267,13.613 2.992,12.12C3.718,10.584 4.742,9.261 6.064,8.152C7.387,7 8.944,6.104 10.736,5.464C12.571,4.824 14.576,4.504 16.752,4.504C19.184,4.504 21.574,4.973 23.92,5.912C26.31,6.851 28.4,8.216 30.192,10.008L25.392,15.96C24.027,14.893 22.662,14.083 21.296,13.528C19.931,12.931 18.416,12.632 16.752,12.632C15.131,12.632 13.83,12.973 12.848,13.656C11.91,14.296 11.44,15.213 11.44,16.408C11.44,17.048 11.589,17.603 11.888,18.072C12.23,18.499 12.678,18.904 13.232,19.288C13.83,19.629 14.512,19.971 15.28,20.312C16.048,20.611 16.88,20.952 17.776,21.336L23.152,23.512C25.712,24.536 27.718,25.944 29.168,27.736C30.662,29.528 31.408,31.896 31.408,34.84C31.408,36.589 31.046,38.253 30.32,39.832C29.638,41.368 28.613,42.733 27.248,43.928C25.926,45.08 24.283,46.019 22.32,46.744C20.358,47.427 18.139,47.768 15.664,47.768ZM46.854,47.768C44.892,47.768 43.206,47.469 41.798,46.872C40.433,46.275 39.302,45.443 38.406,44.376C37.553,43.309 36.913,42.029 36.486,40.536C36.102,39 35.91,37.315 35.91,35.48L35.91,22.616L31.558,22.616L31.558,15.64L36.422,15.256L37.51,6.808L45.318,6.808L45.318,15.256L52.934,15.256L52.934,22.616L45.318,22.616L45.318,35.352C45.318,37.144 45.681,38.445 46.406,39.256C47.174,40.024 48.177,40.408 49.414,40.408C49.926,40.408 50.438,40.344 50.95,40.216C51.505,40.088 51.996,39.939 52.422,39.768L53.894,46.616C53.041,46.872 52.038,47.128 50.886,47.384C49.734,47.64 48.39,47.768 46.854,47.768ZM64.6,47.768C63.15,47.768 61.827,47.512 60.632,47C59.48,46.531 58.499,45.869 57.688,45.016C56.878,44.12 56.237,43.096 55.768,41.944C55.342,40.792 55.128,39.533 55.128,38.168C55.128,34.84 56.536,32.237 59.352,30.36C62.168,28.483 66.712,27.224 72.984,26.584C72.899,25.176 72.472,24.067 71.704,23.256C70.979,22.403 69.742,21.976 67.992,21.976C66.627,21.976 65.262,22.232 63.896,22.744C62.574,23.256 61.144,23.96 59.608,24.856L56.216,18.648C58.264,17.411 60.398,16.408 62.616,15.64C64.878,14.872 67.267,14.488 69.784,14.488C73.88,14.488 76.995,15.661 79.128,18.008C81.304,20.312 82.392,23.917 82.392,28.824L82.392,47L74.712,47L74.072,43.736L73.816,43.736C72.451,44.931 71.022,45.912 69.528,46.68C68.035,47.405 66.392,47.768 64.6,47.768ZM67.8,40.472C68.867,40.472 69.784,40.237 70.552,39.768C71.32,39.299 72.131,38.637 72.984,37.784L72.984,32.216C69.656,32.685 67.352,33.368 66.072,34.264C64.792,35.16 64.152,36.227 64.152,37.464C64.152,38.488 64.472,39.256 65.112,39.768C65.795,40.237 66.691,40.472 67.8,40.472ZM89.07,47L89.07,15.256L96.75,15.256L97.39,19.288L97.646,19.288C99.011,18.008 100.505,16.899 102.126,15.96C103.747,14.979 105.646,14.488 107.822,14.488C111.278,14.488 113.774,15.619 115.31,17.88C116.889,20.141 117.678,23.277 117.678,27.288L117.678,47L108.27,47L108.27,28.504C108.27,26.2 107.95,24.621 107.31,23.768C106.713,22.915 105.731,22.488 104.366,22.488C103.171,22.488 102.147,22.765 101.294,23.32C100.441,23.832 99.502,24.579 98.478,25.56L98.478,47L89.07,47ZM126.015,47L126.015,22.616L121.791,22.616L121.791,15.64L126.015,15.32L126.015,13.592C126.015,11.928 126.207,10.349 126.591,8.856C127.018,7.363 127.7,6.061 128.639,4.952C129.578,3.843 130.794,2.968 132.287,2.328C133.78,1.688 135.594,1.368 137.727,1.368C139.05,1.368 140.244,1.496 141.311,1.752C142.42,2.008 143.338,2.264 144.063,2.52L142.335,9.432C141.14,9.005 140.052,8.792 139.071,8.792C137.919,8.792 137.023,9.155 136.383,9.88C135.743,10.563 135.423,11.715 135.423,13.336L135.423,15.256L141.119,15.256L141.119,22.616L135.423,22.616L135.423,47L126.015,47ZM157.955,47.768C155.949,47.768 154.008,47.405 152.131,46.68C150.253,45.912 148.589,44.824 147.139,43.416C145.731,42.008 144.6,40.28 143.747,38.232C142.893,36.141 142.467,33.773 142.467,31.128C142.467,28.483 142.893,26.136 143.747,24.088C144.6,21.997 145.731,20.248 147.139,18.84C148.589,17.432 150.253,16.365 152.131,15.64C154.008,14.872 155.949,14.488 157.955,14.488C159.96,14.488 161.88,14.872 163.715,15.64C165.592,16.365 167.235,17.432 168.643,18.84C170.093,20.248 171.245,21.997 172.099,24.088C172.952,26.136 173.379,28.483 173.379,31.128C173.379,33.773 172.952,36.141 172.099,38.232C171.245,40.28 170.093,42.008 168.643,43.416C167.235,44.824 165.592,45.912 163.715,46.68C161.88,47.405 159.96,47.768 157.955,47.768ZM157.955,40.152C159.875,40.152 161.325,39.341 162.307,37.72C163.288,36.099 163.779,33.901 163.779,31.128C163.779,28.355 163.288,26.157 162.307,24.536C161.325,22.915 159.875,22.104 157.955,22.104C155.992,22.104 154.52,22.915 153.539,24.536C152.6,26.157 152.131,28.355 152.131,31.128C152.131,33.901 152.6,36.099 153.539,37.72C154.52,39.341 155.992,40.152 157.955,40.152ZM178.543,47L178.543,15.256L186.223,15.256L186.863,20.824L187.119,20.824C188.271,18.648 189.657,17.048 191.279,16.024C192.9,15 194.521,14.488 196.143,14.488C197.039,14.488 197.764,14.552 198.319,14.68C198.916,14.765 199.449,14.915 199.919,15.128L198.383,23.256C197.785,23.085 197.231,22.957 196.719,22.872C196.207,22.787 195.609,22.744 194.927,22.744C193.732,22.744 192.473,23.171 191.151,24.024C189.871,24.877 188.804,26.392 187.951,28.568L187.951,47L178.543,47ZM213.465,47.768C211.503,47.768 209.711,47.384 208.089,46.616C206.511,45.848 205.145,44.76 203.993,43.352C202.884,41.901 202.009,40.152 201.369,38.104C200.772,36.056 200.473,33.731 200.473,31.128C200.473,28.525 200.836,26.2 201.561,24.152C202.329,22.104 203.311,20.376 204.505,18.968C205.743,17.517 207.151,16.408 208.729,15.64C210.351,14.872 211.993,14.488 213.657,14.488C215.449,14.488 216.921,14.787 218.073,15.384C219.225,15.981 220.356,16.792 221.465,17.816L221.081,12.952L221.081,2.136L230.489,2.136L230.489,47L222.809,47L222.169,43.864L221.913,43.864C220.804,44.973 219.503,45.912 218.009,46.68C216.516,47.405 215.001,47.768 213.465,47.768ZM215.897,40.088C216.921,40.088 217.839,39.875 218.649,39.448C219.503,39.021 220.313,38.275 221.081,37.208L221.081,24.216C220.228,23.448 219.353,22.915 218.457,22.616C217.561,22.317 216.687,22.168 215.833,22.168C214.34,22.168 213.017,22.893 211.865,24.344C210.713,25.752 210.137,27.971 210.137,31C210.137,34.157 210.628,36.461 211.609,37.912C212.633,39.363 214.063,40.088 215.897,40.088ZM249.845,47L249.845,5.272L259.253,5.272L259.253,21.336L273.653,21.336L273.653,5.272L283.125,5.272L283.125,47L273.653,47L273.653,29.592L259.253,29.592L259.253,47L249.845,47ZM300.459,47.768C297.003,47.768 294.485,46.637 292.907,44.376C291.371,42.115 290.603,38.979 290.603,34.968L290.603,15.256L300.011,15.256L300.011,33.752C300.011,36.056 300.331,37.635 300.971,38.488C301.611,39.341 302.613,39.768 303.979,39.768C305.173,39.768 306.176,39.491 306.987,38.936C307.797,38.381 308.672,37.485 309.611,36.248L309.611,15.256L319.019,15.256L319.019,47L311.339,47L310.635,42.584L310.443,42.584C309.077,44.205 307.605,45.485 306.027,46.424C304.491,47.32 302.635,47.768 300.459,47.768ZM326.018,47L326.018,15.256L333.698,15.256L334.338,19.352L334.594,19.352C335.916,18.029 337.324,16.899 338.818,15.96C340.311,14.979 342.103,14.488 344.194,14.488C346.455,14.488 348.268,14.957 349.634,15.896C351.042,16.792 352.151,18.093 352.962,19.8C354.37,18.349 355.842,17.112 357.378,16.088C358.956,15.021 360.812,14.488 362.946,14.488C366.359,14.488 368.855,15.64 370.434,17.944C372.055,20.205 372.866,23.32 372.866,27.288L372.866,47L363.458,47L363.458,28.504C363.458,26.2 363.138,24.621 362.498,23.768C361.9,22.915 360.919,22.488 359.554,22.488C357.975,22.488 356.162,23.512 354.114,25.56L354.114,47L344.706,47L344.706,28.504C344.706,26.2 344.386,24.621 343.746,23.768C343.148,22.915 342.167,22.488 340.802,22.488C339.18,22.488 337.388,23.512 335.426,25.56L335.426,47L326.018,47ZM387.613,47.768C386.162,47.768 384.839,47.512 383.645,47C382.493,46.531 381.511,45.869 380.701,45.016C379.89,44.12 379.25,43.096 378.781,41.944C378.354,40.792 378.141,39.533 378.141,38.168C378.141,34.84 379.549,32.237 382.365,30.36C385.181,28.483 389.725,27.224 395.997,26.584C395.911,25.176 395.485,24.067 394.717,23.256C393.991,22.403 392.754,21.976 391.005,21.976C389.639,21.976 388.274,22.232 386.909,22.744C385.586,23.256 384.157,23.96 382.621,24.856L379.229,18.648C381.277,17.411 383.41,16.408 385.629,15.64C387.89,14.872 390.279,14.488 392.797,14.488C396.893,14.488 400.007,15.661 402.141,18.008C404.317,20.312 405.405,23.917 405.405,28.824L405.405,47L397.725,47L397.085,43.736L396.829,43.736C395.463,44.931 394.034,45.912 392.541,46.68C391.047,47.405 389.405,47.768 387.613,47.768ZM390.813,40.472C391.879,40.472 392.797,40.237 393.565,39.768C394.333,39.299 395.143,38.637 395.997,37.784L395.997,32.216C392.669,32.685 390.365,33.368 389.085,34.264C387.805,35.16 387.165,36.227 387.165,37.464C387.165,38.488 387.485,39.256 388.125,39.768C388.807,40.237 389.703,40.472 390.813,40.472ZM412.082,47L412.082,15.256L419.762,15.256L420.402,19.288L420.658,19.288C422.024,18.008 423.517,16.899 425.138,15.96C426.76,14.979 428.658,14.488 430.834,14.488C434.29,14.488 436.786,15.619 438.322,17.88C439.901,20.141 440.69,23.277 440.69,27.288L440.69,47L431.282,47L431.282,28.504C431.282,26.2 430.962,24.621 430.322,23.768C429.725,22.915 428.744,22.488 427.378,22.488C426.184,22.488 425.16,22.765 424.306,23.32C423.453,23.832 422.514,24.579 421.49,25.56L421.49,47L412.082,47ZM447.427,47L447.427,15.256L456.835,15.256L456.835,47L447.427,47ZM452.099,10.584C450.521,10.584 449.219,10.136 448.195,9.24C447.171,8.301 446.659,7.107 446.659,5.656C446.659,4.205 447.171,3.032 448.195,2.136C449.219,1.24 450.521,0.792 452.099,0.792C453.721,0.792 455.022,1.24 456.003,2.136C457.027,3.032 457.539,4.205 457.539,5.656C457.539,7.107 457.027,8.301 456.003,9.24C455.022,10.136 453.721,10.584 452.099,10.584ZM476.059,47.768C474.096,47.768 472.411,47.469 471.003,46.872C469.638,46.275 468.507,45.443 467.611,44.376C466.758,43.309 466.118,42.029 465.691,40.536C465.307,39 465.115,37.315 465.115,35.48L465.115,22.616L460.763,22.616L460.763,15.64L465.627,15.256L466.715,6.808L474.523,6.808L474.523,15.256L482.139,15.256L482.139,22.616L474.523,22.616L474.523,35.352C474.523,37.144 474.886,38.445 475.611,39.256C476.379,40.024 477.382,40.408 478.619,40.408C479.131,40.408 479.643,40.344 480.155,40.216C480.71,40.088 481.2,39.939 481.627,39.768L483.099,46.616C482.246,46.872 481.243,47.128 480.091,47.384C478.939,47.64 477.595,47.768 476.059,47.768ZM487.055,47L487.055,15.256L496.463,15.256L496.463,47L487.055,47ZM491.727,10.584C490.148,10.584 488.847,10.136 487.823,9.24C486.799,8.301 486.287,7.107 486.287,5.656C486.287,4.205 486.799,3.032 487.823,2.136C488.847,1.24 490.148,0.792 491.727,0.792C493.348,0.792 494.65,1.24 495.631,2.136C496.655,3.032 497.167,4.205 497.167,5.656C497.167,7.107 496.655,8.301 495.631,9.24C494.65,10.136 493.348,10.584 491.727,10.584ZM517.67,47.768C515.409,47.768 513.297,47.405 511.334,46.68C509.372,45.912 507.665,44.824 506.214,43.416C504.764,41.965 503.633,40.216 502.822,38.168C502.012,36.12 501.606,33.773 501.606,31.128C501.606,28.568 502.033,26.264 502.886,24.216C503.74,22.125 504.849,20.376 506.214,18.968C507.622,17.517 509.222,16.408 511.014,15.64C512.806,14.872 514.662,14.488 516.582,14.488C518.844,14.488 520.806,14.872 522.47,15.64C524.177,16.408 525.585,17.475 526.694,18.84C527.846,20.205 528.7,21.827 529.254,23.704C529.809,25.539 530.086,27.544 530.086,29.72C530.086,30.573 530.044,31.384 529.958,32.152C529.873,32.92 529.788,33.496 529.702,33.88L510.694,33.88C511.121,36.184 512.06,37.891 513.51,39C515.004,40.067 516.817,40.6 518.95,40.6C521.212,40.6 523.494,39.896 525.798,38.488L528.934,44.184C527.313,45.293 525.5,46.168 523.494,46.808C521.532,47.448 519.59,47.768 517.67,47.768ZM510.63,27.672L522.086,27.672C522.086,25.88 521.681,24.429 520.87,23.32C520.06,22.211 518.694,21.656 516.774,21.656C515.281,21.656 513.958,22.147 512.806,23.128C511.697,24.109 510.972,25.624 510.63,27.672ZM544.652,47.768C542.561,47.768 540.406,47.363 538.188,46.552C536.012,45.741 534.113,44.675 532.492,43.352L536.716,37.464C538.166,38.573 539.553,39.405 540.876,39.96C542.198,40.515 543.542,40.792 544.908,40.792C546.316,40.792 547.34,40.557 547.98,40.088C548.62,39.619 548.94,38.957 548.94,38.104C548.94,37.592 548.748,37.144 548.364,36.76C548.022,36.333 547.532,35.949 546.892,35.608C546.294,35.267 545.612,34.968 544.844,34.712C544.076,34.413 543.286,34.093 542.476,33.752C541.494,33.368 540.513,32.92 539.532,32.408C538.55,31.896 537.654,31.277 536.844,30.552C536.033,29.784 535.372,28.909 534.86,27.928C534.348,26.904 534.092,25.731 534.092,24.408C534.092,22.957 534.369,21.613 534.924,20.376C535.521,19.139 536.353,18.093 537.42,17.24C538.486,16.387 539.766,15.725 541.26,15.256C542.753,14.744 544.417,14.488 546.252,14.488C548.684,14.488 550.817,14.915 552.652,15.768C554.486,16.579 556.086,17.496 557.452,18.52L553.228,24.152C552.076,23.299 550.945,22.637 549.836,22.168C548.726,21.699 547.617,21.464 546.508,21.464C544.118,21.464 542.924,22.296 542.924,23.96C542.924,24.472 543.094,24.92 543.436,25.304C543.777,25.645 544.225,25.965 544.78,26.264C545.377,26.563 546.038,26.861 546.764,27.16C547.532,27.416 548.321,27.693 549.132,27.992C550.156,28.376 551.158,28.824 552.14,29.336C553.164,29.805 554.081,30.403 554.892,31.128C555.745,31.853 556.428,32.749 556.94,33.816C557.452,34.84 557.708,36.077 557.708,37.528C557.708,38.979 557.43,40.323 556.876,41.56C556.321,42.797 555.489,43.885 554.38,44.824C553.27,45.72 551.905,46.445 550.284,47C548.662,47.512 546.785,47.768 544.652,47.768Z" style="fill:rgb(153,0,0);fill-rule:nonzero;"/>
    </g>
</svg>
