<?xml version="1.0" encoding="UTF-8" standalone="no"?>
<!DOCTYPE svg PUBLIC "-//W3C//DTD SVG 1.1//EN" "http://www.w3.org/Graphics/SVG/1.1/DTD/svg11.dtd">
<svg width="100%" height="100%" viewBox="0 0 561 562" version="1.1" xmlns="http://www.w3.org/2000/svg" xmlns:xlink="http://www.w3.org/1999/xlink" xml:space="preserve" xmlns:serif="http://www.serif.com/" style="fill-rule:evenodd;clip-rule:evenodd;stroke-linejoin:round;stroke-miterlimit:2;">
    <g transform="matrix(0.829377,0,0,0.889294,-8.95252,71.1956)">
        <g>
            <g>
                <clipPath id="_clip1">
                    <rect x="12" y="10.8" width="674" height="411"/>
                </clipPath>
                <g clip-path="url(#_clip1)">
                    <path d="M208,162.7C208,171.5 205.3,180 200.4,187.3C195.5,194.6 188.6,200.2 180.5,203.6C172.4,206.9 163.5,207.8 154.9,206C146.3,204.3 138.4,200 132.2,193.8C126,187.6 121.8,179.7 120.1,171.1C118.4,162.5 119.3,153.6 122.7,145.5C126.1,137.4 131.7,130.5 139,125.6C146.3,120.7 154.9,118.1 163.6,118.1C169.4,118.1 175.2,119.3 180.6,121.5C186,123.7 190.9,127 195,131.2C199.1,135.3 202.4,140.2 204.6,145.6C206.9,151 208,156.8 208,162.7Z" style="fill:rgb(216,57,105);fill-rule:nonzero;"/>
                    <path d="M226.5,55.3C226.5,46.5 229.1,38 234,30.7C238.9,23.4 245.8,17.7 253.9,14.4C262,11 270.9,10.2 279.5,11.9C288.1,13.6 296,17.8 302.2,24.1C308.4,30.3 312.6,38.2 314.3,46.8C316,55.4 315.1,64.3 311.8,72.4C308.4,80.5 302.8,87.4 295.5,92.3C288.2,97.2 279.6,99.8 270.9,99.8C259.1,99.8 247.9,95.1 239.5,86.8C231.2,78.4 226.5,67.1 226.5,55.3Z" style="fill:rgb(240,83,90);fill-rule:nonzero;"/>
                    <path d="M12,55.3C12,46.5 14.6,38 19.5,30.7C24.4,23.4 31.3,17.7 39.4,14.4C47.5,11 56.4,10.2 65,11.9C73.6,13.6 81.5,17.8 87.7,24.1C93.9,30.3 98.1,38.2 99.8,46.8C101.5,55.4 100.6,64.3 97.3,72.4C93.9,80.5 88.3,87.4 81,92.3C73.7,97.2 65.1,99.8 56.4,99.8C44.6,99.8 33.4,95.1 25,86.8C16.7,78.4 12,67.1 12,55.3Z" style="fill:rgb(93,85,140);fill-rule:nonzero;"/>
                    <path d="M12,377.4C12,368.6 14.6,360.1 19.5,352.8C24.4,345.5 31.3,339.8 39.4,336.5C47.5,333.1 56.4,332.3 65,334C73.6,335.7 81.5,339.9 87.7,346.2C93.9,352.4 98.1,360.3 99.8,368.9C101.5,377.5 100.6,386.4 97.3,394.5C93.9,402.6 88.3,409.5 81,414.4C73.7,419.3 65.1,421.9 56.4,421.9C44.6,421.9 33.4,417.2 25,408.9C16.7,400.5 12,389.2 12,377.4Z" style="fill:rgb(99,166,218);fill-rule:nonzero;"/>
                    <path d="M207.8,225.8L207.8,314.5L119.2,314.5C120.6,291.4 130.4,269.7 146.7,253.3C163,237.1 184.8,227.3 207.8,225.8Z" style="fill:rgb(216,57,105);fill-rule:nonzero;"/>
                    <path d="M12,207.1L12,118.4C35,119.8 56.7,129.7 73.1,146C89.4,162.3 99.2,184.1 100.6,207.1L12,207.1Z" style="fill:rgb(96,192,141);fill-rule:nonzero;"/>
                    <path d="M100.8,225.6L100.8,314.3C77.8,312.9 56,303 39.7,286.7C23.4,270.4 13.6,248.6 12.2,225.6L100.8,225.6Z" style="fill:rgb(67,185,125);fill-rule:nonzero;"/>
                    <path d="M422.4,10.8L422.4,99.7L333.7,99.7C335.1,76.6 344.8,54.8 361.2,38.4C377.5,22.1 399.3,12.3 422.4,10.8Z" style="fill:rgb(96,192,141);fill-rule:nonzero;"/>
                    <path d="M207.8,99.7L119.2,99.7L119.2,10.8C142.3,12.2 164,22.1 180.3,38.4C196.7,54.9 206.4,76.6 207.8,99.7Z" style="fill:rgb(93,85,140);fill-rule:nonzero;"/>
                    <path d="M226.5,333L315.2,333L315.2,421.7C292.1,420.3 270.4,410.5 254,394.1C237.6,377.7 227.9,356.1 226.5,333Z" style="fill:rgb(254,229,81);fill-rule:nonzero;"/>
                    <path d="M208,333L119.2,333L119.2,421.7C142.3,420.3 164,410.5 180.4,394.2C196.8,377.9 206.6,356.1 208,333Z" style="fill:rgb(160,133,139);fill-rule:nonzero;"/>
                    <path d="M333.7,207L333.7,118.1L422.2,118.1C420.8,141.2 411.1,162.9 394.8,179.3C378.5,195.7 356.7,205.5 333.7,207Z" style="fill:rgb(160,133,139);fill-rule:nonzero;"/>
                    <path d="M333.7,270.1C333.7,261.3 336.3,252.8 341.2,245.5C346.1,238.2 353,232.5 361.1,229.2C369.2,225.9 378.1,225 386.7,226.7C395.3,228.4 403.2,232.7 409.4,238.9C415.6,245.1 419.8,253 421.5,261.6C423.2,270.2 422.3,279.1 419,287.2C415.6,295.3 410,302.2 402.7,307.1C395.4,312 386.8,314.6 378.1,314.6C366.3,314.6 355,309.9 346.7,301.5C338.4,293.2 333.7,281.9 333.7,270.1Z" style="fill:rgb(99,166,218);fill-rule:nonzero;"/>
                    <path d="M333.7,421.8L333.7,333L422.2,333C420.8,356 411,377.8 394.8,394.1C378.4,410.5 356.7,420.3 333.7,421.8Z" style="fill:rgb(255,207,49);fill-rule:nonzero;"/>
                    <rect x="226.5" y="118.3" width="88.7" height="196.3" style="fill:rgb(240,83,90);fill-rule:nonzero;"/>
                    <path d="M614.2,354.2L614.2,421.8L598.3,421.8L598.3,407.2C596.5,411.4 593.5,415.1 589.7,417.7C585.9,420.3 581.4,421.7 576.8,421.9C563.5,421.9 553.7,414.8 553.7,394.6L553.7,354.3L569.7,354.3L569.7,393.6C569.7,404.1 575.2,408.2 582.5,408.2C584.5,408.4 586.4,408.1 588.3,407.5C590.2,406.9 591.9,405.9 593.4,404.6C594.9,403.3 596.1,401.7 596.9,399.9C597.7,398.1 598.2,396.2 598.3,394.2L598.3,354.2L614.2,354.2Z" style="fill:rgb(104,109,115);fill-rule:nonzero;"/>
                    <path d="M625.8,283.9C625.8,299.2 612.2,307.6 593.9,307.6C574.4,307.6 563,297.8 561.9,281.3L577.4,281.3C577.6,283.3 578.1,285.2 579,287C579.9,288.8 581.2,290.3 582.7,291.6C584.2,292.9 586,293.8 587.9,294.4C589.8,295 591.8,295.2 593.8,295C603.9,295 609.7,290.1 609.7,283.8C609.7,276.9 605.3,274.3 597.2,272.7L586.4,270.7C573.1,268.2 563.4,262.5 563.4,248.3C563.4,235 574.6,225.7 592.6,225.7C610.7,225.7 621.8,234 623.5,249.3L607.8,249.3C606.8,242.4 601.9,238.4 592.6,238.4C583.3,238.4 579.1,244.2 579.1,248.8C579.1,253.4 581.4,257.1 588.8,258.6L600.8,260.9C618.2,264.4 625.8,270.4 625.8,283.9Z" style="fill:rgb(104,109,115);fill-rule:nonzero;"/>
                    <path d="M554.1,283.9C554.1,299.2 540.4,307.6 522.2,307.6C502.7,307.6 491.3,297.8 490.2,281.3L505.9,281.3C506.1,283.3 506.6,285.2 507.5,287C508.4,288.8 509.7,290.3 511.2,291.6C512.7,292.9 514.5,293.8 516.4,294.4C518.3,295 520.3,295.2 522.3,295C532.4,295 538.3,290.1 538.3,283.8C538.3,276.9 533.8,274.3 525.7,272.7L514.9,270.7C501.6,268.2 491.9,262.5 491.9,248.3C491.9,235 503.1,225.7 521.1,225.7C539.2,225.7 550.3,234 552,249.3L536.3,249.3C535.3,242.4 530.4,238.4 521.1,238.4C511.8,238.4 507.6,244.2 507.6,248.8C507.6,253.4 509.9,257.1 517.3,258.6L529.3,260.9C546.4,264.4 554.1,270.4 554.1,283.9Z" style="fill:rgb(104,109,115);fill-rule:nonzero;"/>
                    <path d="M649.1,238.9L649.1,259.9L679.8,259.9L679.8,272.1L649.1,272.1L649.1,307.5L633.9,307.5L633.9,225.7L686,225.7L686,238.9L649.1,238.9Z" style="fill:rgb(104,109,115);fill-rule:nonzero;"/>
                    <path d="M682,387.6C682,412 666.5,421.7 654.5,421.7C650.7,421.8 647,420.8 643.8,418.7C640.6,416.6 638.3,413.5 637,409.9L637,421.7L621.8,421.7L621.8,329.4L637,329.4L637,364.1C638.8,360.9 641.4,358.3 644.5,356.5C647.6,354.7 651.2,353.8 654.9,353.9C666.5,353.9 682,363.6 682,387.6ZM667.4,387.6C667.4,373 660.3,367.1 651.8,367.1C643.3,367.1 636.4,373.4 636.4,387.6C636.4,401.7 643.5,408.3 651.8,408.3C660,408.3 667.3,402.1 667.4,387.6Z" style="fill:rgb(104,109,115);fill-rule:nonzero;"/>
                    <path d="M530.7,329.6L530.7,369.8L506,369.8L506,329.5L490.1,329.5L490.1,421.3L506,421.3L506,383.5L530.7,383.5L530.7,421.4L546.6,421.4L546.6,329.6L530.7,329.6Z" style="fill:rgb(104,109,115);fill-rule:nonzero;"/>
                </g>
            </g>
        </g>
    </g>
</svg>
