<?xml version="1.0" encoding="UTF-8" standalone="no"?>
<!DOCTYPE svg PUBLIC "-//W3C//DTD SVG 1.1//EN" "http://www.w3.org/Graphics/SVG/1.1/DTD/svg11.dtd">
<svg width="100%" height="100%" viewBox="0 0 561 561" version="1.1" xmlns="http://www.w3.org/2000/svg" xmlns:xlink="http://www.w3.org/1999/xlink" xml:space="preserve" xmlns:serif="http://www.serif.com/" style="fill-rule:evenodd;clip-rule:evenodd;stroke-linejoin:round;stroke-miterlimit:2;">
    <g transform="matrix(2.75043,0,0,2.75043,1,210.952)">
        <path d="M80.041,2.234L75.004,2.234L75.004,0L87.863,0L87.863,2.234L82.824,2.234L82.824,16.628L80.041,16.628L80.041,2.234Z" style="fill-rule:nonzero;"/>
    </g>
    <g transform="matrix(2.75043,0,0,2.75043,1,210.952)">
        <path d="M100.31,9.361L93.021,9.361L93.021,16.626L90.238,16.626L90.238,0L93.021,0L93.021,7.13L100.31,7.13L100.31,0L103.093,0L103.093,16.628L100.31,16.628L100.31,9.361Z" style="fill-rule:nonzero;"/>
    </g>
    <g transform="matrix(2.75043,0,0,2.75043,1,210.952)">
        <path d="M107.508,0L119.247,0L119.247,2.371L110.29,2.371L110.29,7.128L117.936,7.128L117.936,9.361L110.29,9.361L110.29,14.256L119.247,14.256L119.247,16.626L107.508,16.626L107.508,0Z" style="fill-rule:nonzero;"/>
    </g>
    <g transform="matrix(2.75043,0,0,2.75043,1,210.952)">
        <path d="M89.8,27.754L81.565,27.754L81.565,30.672L88.603,30.672L88.603,34.311L81.565,34.311L81.565,40.742L76.906,40.742L76.906,24.113L89.8,24.113L89.8,27.754Z" style="fill-rule:nonzero;"/>
    </g>
    <g transform="matrix(2.75043,0,0,2.75043,1,210.952)">
        <path d="M107.784,40.746L102.396,40.746L99.03,34.554L97.451,34.554L97.451,40.746L92.793,40.746L92.793,24.117L100.306,24.117C101.666,24.117 102.833,24.366 103.802,24.865C104.774,25.364 105.51,26.019 106.019,26.831C106.526,27.644 106.78,28.524 106.78,29.467C106.78,30.509 106.48,31.401 105.878,32.141C105.276,32.882 104.548,33.439 103.69,33.813L107.781,40.748L107.784,40.746ZM102.124,29.471C102.124,29.176 102.042,28.9 101.882,28.642C101.721,28.385 101.487,28.178 101.177,28.022C100.868,27.867 100.51,27.79 100.101,27.79L97.454,27.79L97.454,31.143L100.101,31.143C100.51,31.143 100.868,31.066 101.177,30.911C101.487,30.755 101.721,30.551 101.882,30.298C102.042,30.045 102.124,29.768 102.124,29.474L102.124,29.471Z" style="fill-rule:nonzero;"/>
    </g>
    <g transform="matrix(2.75043,0,0,2.75043,1,210.952)">
        <path d="M125.637,40.746L120.767,40.746L119.882,38.271L114.04,38.271L113.117,40.746L108.238,40.746L115.135,24.117L118.74,24.117L125.637,40.746ZM118.661,34.86L117.06,30.423L115.356,34.86L118.661,34.86Z" style="fill-rule:nonzero;"/>
    </g>
    <g transform="matrix(2.75043,0,0,2.75043,1,210.952)">
        <path d="M142.366,40.746L138.293,40.746L132.217,32.385L132.217,40.746L127.559,40.746L127.559,24.117L131.633,24.117L137.707,32.478L137.707,24.117L142.366,24.117L142.366,40.746Z" style="fill-rule:nonzero;"/>
    </g>
    <g transform="matrix(2.75043,0,0,2.75043,1,210.952)">
        <path d="M162.22,40.745L156.794,40.745L152.422,33.926L150.82,35.535L150.82,40.748L146.188,40.748L146.188,24.119L150.82,24.119L150.82,30.005L156.311,24.119L162.01,24.119L155.53,30.848L162.217,40.748L162.22,40.745Z" style="fill-rule:nonzero;"/>
    </g>
    <g transform="matrix(2.75043,0,0,2.75043,1,210.952)">
        <path d="M176.774,40.746L164.152,40.746L164.152,24.117L168.811,24.117L168.811,37.107L176.774,37.107L176.774,40.746Z" style="fill-rule:nonzero;"/>
    </g>
    <g transform="matrix(2.75043,0,0,2.75043,1,210.952)">
        <rect x="179.5" y="24.117" width="4.658" height="16.628" style="fill-rule:nonzero;"/>
    </g>
    <g transform="matrix(2.75043,0,0,2.75043,1,210.952)">
        <path d="M202.807,40.746L198.735,40.746L192.658,32.385L192.658,40.746L188,40.746L188,24.117L192.075,24.117L198.149,32.478L198.149,24.117L202.807,24.117L202.807,40.746Z" style="fill-rule:nonzero;"/>
    </g>
    <g transform="matrix(2.75043,0,0,2.75043,1,210.952)">
        <rect x="76.918" y="48.231" width="2.782" height="16.628" style="fill-rule:nonzero;"/>
    </g>
    <g transform="matrix(2.75043,0,0,2.75043,1,210.952)">
        <path d="M83.785,48.231L86.409,48.231L94.731,60.051L94.782,60.051L94.782,48.231L97.565,48.231L97.565,64.859L94.929,64.859L86.619,53.039L86.568,53.039L86.568,64.859L83.785,64.859L83.785,48.231Z" style="fill-rule:nonzero;"/>
    </g>
    <g transform="matrix(2.75043,0,0,2.75043,1,210.952)">
        <path d="M102.78,60.829C104.242,61.917 105.983,62.47 108.003,62.486C110.391,62.456 111.602,61.683 111.637,60.169C111.653,58.929 110.856,58.184 109.242,57.931C108.503,57.841 107.692,57.736 106.809,57.622C105.228,57.385 104.026,56.858 103.203,56.036C102.355,55.191 101.929,54.165 101.929,52.956C101.929,51.502 102.462,50.33 103.529,49.44C104.561,48.558 106.025,48.108 107.922,48.094C110.205,48.14 112.19,48.711 113.877,49.812L112.327,51.883C110.949,51.061 109.431,50.634 107.776,50.604C106.918,50.604 106.204,50.799 105.632,51.186C105.035,51.59 104.728,52.192 104.712,52.99C104.712,53.469 104.916,53.903 105.33,54.291C105.742,54.685 106.402,54.959 107.308,55.112C107.813,55.189 108.501,55.275 109.375,55.375C111.097,55.588 112.371,56.148 113.194,57.053C114.01,57.945 114.417,58.978 114.417,60.158C114.324,63.338 112.176,64.952 107.969,64.999C105.249,64.999 102.91,64.242 100.953,62.728L102.78,60.833L102.78,60.829Z" style="fill-rule:nonzero;"/>
    </g>
    <g transform="matrix(2.75043,0,0,2.75043,1,210.952)">
        <path d="M120.963,50.466L115.926,50.466L115.926,48.232L128.785,48.232L128.785,50.466L123.745,50.466L123.745,64.861L120.963,64.861L120.963,50.466Z" style="fill-rule:nonzero;"/>
    </g>
    <g transform="matrix(2.75043,0,0,2.75043,1,210.952)">
        <rect x="131.164" y="48.231" width="2.783" height="16.628" style="fill-rule:nonzero;"/>
    </g>
    <g transform="matrix(2.75043,0,0,2.75043,1,210.952)">
        <path d="M141.154,50.466L136.117,50.466L136.117,48.232L148.976,48.232L148.976,50.466L143.937,50.466L143.937,64.861L141.154,64.861L141.154,50.466Z" style="fill-rule:nonzero;"/>
    </g>
    <g transform="matrix(2.75043,0,0,2.75043,1,210.952)">
        <path d="M151.555,48.231L154.337,48.231L154.337,58.959C154.353,60.092 154.716,60.956 155.423,61.55C156.113,62.175 157.001,62.486 158.087,62.486C159.172,62.486 160.067,62.175 160.776,61.55C161.466,60.956 161.82,60.092 161.836,58.959L161.836,48.231L164.618,48.231L164.618,59.224C164.586,60.972 163.958,62.361 162.74,63.387C161.513,64.443 159.962,64.98 158.089,64.996C156.248,64.98 154.709,64.446 153.475,63.389C152.213,62.363 151.576,60.977 151.559,59.231L151.559,48.231L151.555,48.231Z" style="fill-rule:nonzero;"/>
    </g>
    <g transform="matrix(2.75043,0,0,2.75043,1,210.952)">
        <path d="M171.799,50.466L166.762,50.466L166.762,48.232L179.621,48.232L179.621,50.466L174.581,50.466L174.581,64.861L171.799,64.861L171.799,50.466Z" style="fill-rule:nonzero;"/>
    </g>
    <g transform="matrix(2.75043,0,0,2.75043,1,210.952)">
        <path d="M182,48.231L193.739,48.231L193.739,50.601L184.782,50.601L184.782,55.359L192.428,55.359L192.428,57.592L184.782,57.592L184.782,62.486L193.739,62.486L193.739,64.857L182,64.857L182,48.228L182,48.231Z" style="fill-rule:nonzero;"/>
    </g>
    <g transform="matrix(2.75043,0,0,2.75043,1,210.952)">
        <path d="M18.649,43.316L10.199,43.316L10.199,39.973L31.773,39.973L31.773,43.316L23.317,43.316L23.317,64.857L18.649,64.857L18.649,43.316Z" style="fill-rule:nonzero;"/>
    </g>
    <g transform="matrix(2.75043,0,0,2.75043,1,210.952)">
        <path d="M35.77,39.973L55.465,39.973L55.465,43.52L40.437,43.52L40.437,50.88L53.264,50.88L53.264,54.221L40.437,54.221L40.437,64.857L35.77,64.857L35.77,39.973Z" style="fill-rule:nonzero;"/>
    </g>
    <g transform="matrix(2.75043,0,0,2.75043,1,210.952)">
        <rect x="59.785" y="39.973" width="4.668" height="24.885" style="fill-rule:nonzero;"/>
    </g>
    <g transform="matrix(2.75043,0,0,2.75043,1,210.952)">
        <path d="M0,0L0,64.858L8.647,64.858L8.647,60.196L4.668,60.196L4.668,4.662L59.782,4.662L59.782,31.748L64.45,31.748L64.45,0L0,0Z" style="fill-rule:nonzero;"/>
    </g>
</svg>
